<svg xmlns="http://www.w3.org/2000/svg" width="24" height="24" fill="none" viewBox="0 0 24 24">
  <mask id="a" width="20" height="19" x="2" y="3" maskUnits="userSpaceOnUse" style="mask-type:alpha">
    <path fill="#006FFD" fill-rule="evenodd" d="M2 4.5c0-.398.15-.78.418-1.06.268-.282.632-.44 1.01-.44h17.143c.38 0 .743.158 1.01.44.268.28.419.662.419 1.06s-.15.78-.418 1.06c-.268.282-.632.44-1.01.44H3.428a1.39 1.39 0 0 1-1.01-.44A1.539 1.539 0 0 1 2 4.5ZM5.148 12c0-.398.15-.78.418-1.06.268-.282.632-.44 1.01-.44h10.917c.379 0 .742.158 1.01.44.268.28.419.662.419 1.06s-.151.78-.419 1.06c-.268.282-.631.44-1.01.44H6.577a1.39 1.39 0 0 1-1.01-.44 1.539 1.539 0 0 1-.42-1.06Zm3.672 7.698c0-.398.15-.779.418-1.06.268-.282.631-.44 1.01-.44h3.576c.379 0 .742.158 1.01.44.268.281.419.662.419 1.06s-.15.78-.419 1.061c-.268.281-.631.44-1.01.44h-3.576c-.379 0-.742-.159-1.01-.44a1.539 1.539 0 0 1-.418-1.06Z" clip-rule="evenodd"/>
  </mask>
  <g mask="url(#a)">
    <path fill="#3A7CA5" d="M.004-.001h24v24h-24z"/>
  </g>
</svg>
