<svg xmlns="http://www.w3.org/2000/svg" width="22" height="19" fill="none" viewBox="0 0 22 19">
  <path fill="#0B3750" d="m20.863 15.205-4.459-3.946a1.977 1.977 0 1 0-2.62 2.961l4.098 3.624c.474.42 1.254.42 1.727 0l1.254-1.108c.474-.423.474-1.116 0-1.531Zm-9.309-4.21a1.036 1.036 0 0 0 1.372-1.552l-.094-.083c-.455-.403-.502-1.085-.231-1.629 1.008-2.02.579-4.466-1.291-6.12-2.428-2.147-6.372-2.147-8.803 0-2.432 2.146-2.428 5.635 0 7.785 1.887 1.67 4.689 2.04 6.984 1.116.598-.24 1.297-.195 1.78.232l.283.25Zm-7.84-2.682c-1.76-1.557-1.76-4.081 0-5.635 1.76-1.557 4.615-1.557 6.372 0 1.76 1.557 1.76 4.082 0 5.635-1.757 1.557-4.612 1.557-6.372 0Z"/>
</svg>
