<svg xmlns="http://www.w3.org/2000/svg" width="32" height="28" fill="none" viewBox="0 0 32 28">
  <path fill="#FFF2E0" fill-rule="evenodd" d="M28.188 7.187a2.26 2.26 0 0 1 1.902.132c.28.158.509.375.668.63.159.256.242.542.242.833v10.513c0 .29-.083.577-.242.832a1.865 1.865 0 0 1-.668.631 2.261 2.261 0 0 1-1.902.131 1.06 1.06 0 0 1-.17-.083l-5.17-3.175a1.842 1.842 0 0 1-.623-.623 1.57 1.57 0 0 1-.225-.804v-4.33c0-.28.077-.556.225-.805a1.85 1.85 0 0 1 .624-.623l5.17-3.175c.052-.032.11-.06.169-.084ZM29 8.802v10.473l-5-3.072v-4.33l5-3.07ZM5.249 6.185h11.534c1.117.003 2.188.392 2.978 1.081.79.69 1.236 1.624 1.239 2.599v8.32c-.003.983-.452 1.924-1.247 2.618-.796.695-1.875 1.086-3 1.089H5.247c-1.125-.003-2.204-.394-3-1.089-.795-.694-1.244-1.635-1.247-2.617V9.892c.003-.983.452-1.924 1.248-2.618.795-.695 1.874-1.086 3-1.089Zm.003 1.745a2.436 2.436 0 0 0-1.59.578c-.422.368-.66.866-.662 1.387v8.287c.002.52.24 1.02.662 1.387.422.368.993.576 1.59.578h11.496a2.436 2.436 0 0 0 1.59-.578c.422-.368.66-.867.662-1.387V9.869c-.002-.514-.237-1.006-.653-1.369a2.405 2.405 0 0 0-1.569-.57H5.252Z" clip-rule="evenodd"/>
</svg>
