<svg xmlns="http://www.w3.org/2000/svg" width="28" height="26" fill="none" viewBox="0 0 28 26">
  <path fill="#FFF2E0" d="M14 2.66c-6.44 0-11.667 4.58-11.667 10.225 0 5.644 5.227 10.224 11.667 10.224 6.44 0 11.667-4.58 11.667-10.224S20.44 2.66 14 2.66ZM8.248 19.306c.502-.92 3.559-1.82 5.752-1.82 2.193 0 5.262.9 5.752 1.82-1.587 1.104-3.582 1.758-5.752 1.758s-4.165-.654-5.752-1.758Zm13.172-1.483c-1.668-1.779-5.717-2.382-7.42-2.382-1.703 0-5.752.603-7.42 2.382-1.19-1.37-1.913-3.077-1.913-4.938 0-4.51 4.188-8.18 9.333-8.18 5.145 0 9.333 3.67 9.333 8.18 0 1.86-.723 3.568-1.913 4.938ZM14 6.75c-2.263 0-4.083 1.595-4.083 3.579 0 1.983 1.82 3.578 4.083 3.578s4.083-1.595 4.083-3.578c0-1.984-1.82-3.579-4.083-3.579Zm0 5.112c-.968 0-1.75-.685-1.75-1.533 0-.849.782-1.534 1.75-1.534s1.75.685 1.75 1.534c0 .848-.782 1.533-1.75 1.533Z"/>
</svg>
