<svg xmlns="http://www.w3.org/2000/svg" width="28" height="25" fill="none" viewBox="0 0 28 25">
  <path fill="#FFF2E0" d="M19.25 3.404c-2.03 0-3.978.8-5.25 2.063-1.272-1.263-3.22-2.063-5.25-2.063-3.593 0-6.417 2.39-6.417 5.43 0 3.731 3.967 6.772 9.975 11.392L14 21.519l1.692-1.303c6.008-4.61 9.975-7.65 9.975-11.382 0-3.04-2.824-5.43-6.417-5.43Zm-5.133 15.35-.117.1-.117-.1C8.33 14.5 4.667 11.688 4.667 8.835c0-1.975 1.75-3.455 4.083-3.455 1.797 0 3.547.977 4.165 2.33h2.182c.606-1.353 2.356-2.33 4.153-2.33 2.333 0 4.083 1.48 4.083 3.455 0 2.853-3.663 5.666-9.216 9.92Z"/>
</svg>
