<svg xmlns="http://www.w3.org/2000/svg" width="28" height="25" fill="none" viewBox="0 0 28 25">
  <path fill="#FFF2E0" d="M18.38 14.688h-.92l-.328-.267c1.144-1.125 1.832-2.586 1.832-4.176 0-3.544-3.395-6.416-7.583-6.416-4.189 0-7.584 2.872-7.584 6.416 0 3.544 3.395 6.417 7.584 6.417 1.878 0 3.605-.582 4.935-1.55l.315.277v.78l5.833 4.925 1.739-1.47-5.822-4.936Zm-7 0c-2.904 0-5.25-1.985-5.25-4.443 0-2.458 2.346-4.442 5.25-4.442 2.906 0 5.25 1.984 5.25 4.442 0 2.459-2.344 4.443-5.25 4.443Z"/>
</svg>
